<?xml version="1.0" encoding="UTF-8"?><svg xmlns="http://www.w3.org/2000/svg" xmlns:xlink="http://www.w3.org/1999/xlink" stroke-dasharray="none" shape-rendering="auto" font-family="'Dialog'" width="925" text-rendering="auto" fill-opacity="1" contentScriptType="text/ecmascript" color-interpolation="auto" color-rendering="auto" preserveAspectRatio="xMidYMid meet" font-size="12px" viewBox="0 0 925 1080" fill="black" stroke="black" image-rendering="auto" stroke-miterlimit="10" zoomAndPan="magnify" version="1.0" stroke-linecap="square" stroke-linejoin="miter" contentStyleType="text/css" font-style="normal" height="1080" stroke-width="1" stroke-dashoffset="0" font-weight="normal" stroke-opacity="1">
    <!--Generated by the Batik Graphics2D SVG Generator-->
    <defs id="genericDefs"/>
    <g>
        <defs id="defs1">
            <linearGradient x1="10" x2="10" y1="10" gradientUnits="userSpaceOnUse" y2="1070" xlink:type="simple" xlink:actuate="onLoad" id="linearGradient1" xlink:show="other" spreadMethod="pad">
                <stop stop-opacity="1" stop-color="white" offset="0%"/>
                <stop stop-opacity="1" stop-color="white" offset="100%"/>
            </linearGradient>
            <linearGradient x1="50" x2="50" y1="49" gradientUnits="userSpaceOnUse" y2="1051" xlink:type="simple" xlink:actuate="onLoad" id="linearGradient2" xlink:show="other" spreadMethod="pad">
                <stop stop-opacity="1" stop-color="white" offset="0%"/>
                <stop stop-opacity="1" stop-color="rgb(195,209,213)" offset="100%"/>
            </linearGradient>
            <linearGradient x1="90" x2="90" y1="110" gradientUnits="userSpaceOnUse" y2="951" xlink:type="simple" xlink:actuate="onLoad" id="linearGradient3" xlink:show="other" spreadMethod="pad">
                <stop stop-opacity="1" stop-color="white" offset="0%"/>
                <stop stop-opacity="1" stop-color="rgb(195,209,213)" offset="100%"/>
            </linearGradient>
            <linearGradient x1="230" x2="230" y1="49" gradientUnits="userSpaceOnUse" y2="1051" xlink:type="simple" xlink:actuate="onLoad" id="linearGradient4" xlink:show="other" spreadMethod="pad">
                <stop stop-opacity="1" stop-color="white" offset="0%"/>
                <stop stop-opacity="1" stop-color="rgb(195,209,213)" offset="100%"/>
            </linearGradient>
            <linearGradient x1="270" x2="270" y1="130" gradientUnits="userSpaceOnUse" y2="911" xlink:type="simple" xlink:actuate="onLoad" id="linearGradient5" xlink:show="other" spreadMethod="pad">
                <stop stop-opacity="1" stop-color="white" offset="0%"/>
                <stop stop-opacity="1" stop-color="rgb(195,209,213)" offset="100%"/>
            </linearGradient>
            <linearGradient x1="430" x2="430" y1="49" gradientUnits="userSpaceOnUse" y2="1051" xlink:type="simple" xlink:actuate="onLoad" id="linearGradient6" xlink:show="other" spreadMethod="pad">
                <stop stop-opacity="1" stop-color="white" offset="0%"/>
                <stop stop-opacity="1" stop-color="rgb(195,209,213)" offset="100%"/>
            </linearGradient>
            <linearGradient x1="470" x2="470" y1="390" gradientUnits="userSpaceOnUse" y2="831" xlink:type="simple" xlink:actuate="onLoad" id="linearGradient7" xlink:show="other" spreadMethod="pad">
                <stop stop-opacity="1" stop-color="white" offset="0%"/>
                <stop stop-opacity="1" stop-color="rgb(195,209,213)" offset="100%"/>
            </linearGradient>
            <linearGradient x1="630" x2="630" y1="49" gradientUnits="userSpaceOnUse" y2="1051" xlink:type="simple" xlink:actuate="onLoad" id="linearGradient8" xlink:show="other" spreadMethod="pad">
                <stop stop-opacity="1" stop-color="white" offset="0%"/>
                <stop stop-opacity="1" stop-color="rgb(195,209,213)" offset="100%"/>
            </linearGradient>
            <linearGradient x1="670" x2="670" y1="170" gradientUnits="userSpaceOnUse" y2="270" xlink:type="simple" xlink:actuate="onLoad" id="linearGradient9" xlink:show="other" spreadMethod="pad">
                <stop stop-opacity="1" stop-color="white" offset="0%"/>
                <stop stop-opacity="1" stop-color="rgb(195,209,213)" offset="100%"/>
            </linearGradient>
            <linearGradient x1="670" x2="670" y1="550" gradientUnits="userSpaceOnUse" y2="650" xlink:type="simple" xlink:actuate="onLoad" id="linearGradient10" xlink:show="other" spreadMethod="pad">
                <stop stop-opacity="1" stop-color="white" offset="0%"/>
                <stop stop-opacity="1" stop-color="rgb(195,209,213)" offset="100%"/>
            </linearGradient>
            <linearGradient x1="810" x2="810" y1="49" gradientUnits="userSpaceOnUse" y2="1051" xlink:type="simple" xlink:actuate="onLoad" id="linearGradient11" xlink:show="other" spreadMethod="pad">
                <stop stop-opacity="1" stop-color="white" offset="0%"/>
                <stop stop-opacity="1" stop-color="rgb(195,209,213)" offset="100%"/>
            </linearGradient>
            <linearGradient x1="850" x2="850" y1="670" gradientUnits="userSpaceOnUse" y2="770" xlink:type="simple" xlink:actuate="onLoad" id="linearGradient12" xlink:show="other" spreadMethod="pad">
                <stop stop-opacity="1" stop-color="white" offset="0%"/>
                <stop stop-opacity="1" stop-color="rgb(195,209,213)" offset="100%"/>
            </linearGradient>
            <clipPath clipPathUnits="userSpaceOnUse" id="clipPath1">
                <path d="M10 10 L10 1069 L914 1069 L914 10 Z"/>
            </clipPath>
            <clipPath clipPathUnits="userSpaceOnUse" id="clipPath2">
                <path d="M7 7 L918 7 L918 1073 L7 1073 L7 7 Z"/>
            </clipPath>
            <clipPath clipPathUnits="userSpaceOnUse" id="clipPath3">
                <path d="M15 12 L105 12 L105 34 L15 34 L15 12 Z"/>
            </clipPath>
            <clipPath clipPathUnits="userSpaceOnUse" id="clipPath4">
                <path d="M49 48 L151 48 L151 1052 L49 1052 L49 48 Z"/>
            </clipPath>
            <clipPath clipPathUnits="userSpaceOnUse" id="clipPath5">
                <path d="M50 49 L50 1050 L149 1050 L149 49 Z"/>
            </clipPath>
            <clipPath clipPathUnits="userSpaceOnUse" id="clipPath6">
                <path d="M67 51 L135 51 L135 73 L67 73 L67 51 Z"/>
            </clipPath>
            <clipPath clipPathUnits="userSpaceOnUse" id="clipPath7">
                <path d="M90 110 L90 950 L109 950 L109 110 Z"/>
            </clipPath>
            <clipPath clipPathUnits="userSpaceOnUse" id="clipPath8">
                <path d="M89 109 L111 109 L111 952 L89 952 L89 109 Z"/>
            </clipPath>
            <clipPath clipPathUnits="userSpaceOnUse" id="clipPath9">
                <path d="M229 48 L331 48 L331 1052 L229 1052 L229 48 Z"/>
            </clipPath>
            <clipPath clipPathUnits="userSpaceOnUse" id="clipPath10">
                <path d="M230 49 L230 1050 L329 1050 L329 49 Z"/>
            </clipPath>
            <clipPath clipPathUnits="userSpaceOnUse" id="clipPath11">
                <path d="M249 51 L313 51 L313 73 L249 73 L249 51 Z"/>
            </clipPath>
            <clipPath clipPathUnits="userSpaceOnUse" id="clipPath12">
                <path d="M270 130 L270 910 L289 910 L289 130 Z"/>
            </clipPath>
            <clipPath clipPathUnits="userSpaceOnUse" id="clipPath13">
                <path d="M269 129 L291 129 L291 912 L269 912 L269 129 Z"/>
            </clipPath>
            <clipPath clipPathUnits="userSpaceOnUse" id="clipPath14">
                <path d="M429 48 L531 48 L531 1052 L429 1052 L429 48 Z"/>
            </clipPath>
            <clipPath clipPathUnits="userSpaceOnUse" id="clipPath15">
                <path d="M430 49 L430 1050 L529 1050 L529 49 Z"/>
            </clipPath>
            <clipPath clipPathUnits="userSpaceOnUse" id="clipPath16">
                <path d="M454 51 L508 51 L508 73 L454 73 L454 51 Z"/>
            </clipPath>
            <clipPath clipPathUnits="userSpaceOnUse" id="clipPath17">
                <path d="M470 390 L470 830 L489 830 L489 390 Z"/>
            </clipPath>
            <clipPath clipPathUnits="userSpaceOnUse" id="clipPath18">
                <path d="M469 389 L491 389 L491 832 L469 832 L469 389 Z"/>
            </clipPath>
            <clipPath clipPathUnits="userSpaceOnUse" id="clipPath19">
                <path d="M629 48 L731 48 L731 1052 L629 1052 L629 48 Z"/>
            </clipPath>
            <clipPath clipPathUnits="userSpaceOnUse" id="clipPath20">
                <path d="M630 49 L630 1050 L729 1050 L729 49 Z"/>
            </clipPath>
            <clipPath clipPathUnits="userSpaceOnUse" id="clipPath21">
                <path d="M645 51 L717 51 L717 73 L645 73 L645 51 Z"/>
            </clipPath>
            <clipPath clipPathUnits="userSpaceOnUse" id="clipPath22">
                <path d="M670 170 L670 269 L689 269 L689 170 Z"/>
            </clipPath>
            <clipPath clipPathUnits="userSpaceOnUse" id="clipPath23">
                <path d="M669 169 L691 169 L691 271 L669 271 L669 169 Z"/>
            </clipPath>
            <clipPath clipPathUnits="userSpaceOnUse" id="clipPath24">
                <path d="M670 550 L670 649 L689 649 L689 550 Z"/>
            </clipPath>
            <clipPath clipPathUnits="userSpaceOnUse" id="clipPath25">
                <path d="M669 549 L691 549 L691 651 L669 651 L669 549 Z"/>
            </clipPath>
            <clipPath clipPathUnits="userSpaceOnUse" id="clipPath26">
                <path d="M809 48 L911 48 L911 1052 L809 1052 L809 48 Z"/>
            </clipPath>
            <clipPath clipPathUnits="userSpaceOnUse" id="clipPath27">
                <path d="M810 49 L810 1050 L909 1050 L909 49 Z"/>
            </clipPath>
            <clipPath clipPathUnits="userSpaceOnUse" id="clipPath28">
                <path d="M838 51 L883 51 L883 73 L838 73 L838 51 Z"/>
            </clipPath>
            <clipPath clipPathUnits="userSpaceOnUse" id="clipPath29">
                <path d="M850 670 L850 769 L869 769 L869 670 Z"/>
            </clipPath>
            <clipPath clipPathUnits="userSpaceOnUse" id="clipPath30">
                <path d="M849 669 L871 669 L871 771 L849 771 L849 669 Z"/>
            </clipPath>
            <clipPath clipPathUnits="userSpaceOnUse" id="clipPath31">
                <path d="M9 9 L916 9 L916 1071 L9 1071 L9 9 Z"/>
            </clipPath>
            <clipPath clipPathUnits="userSpaceOnUse" id="clipPath32">
                <path d="M-1 -1 L926 -1 L926 1081 L-1 1081 L-1 -1 Z"/>
            </clipPath>
            <clipPath clipPathUnits="userSpaceOnUse" id="clipPath33">
                <path d="M329 386 L433 386 L433 408 L329 408 L329 386 Z"/>
            </clipPath>
            <clipPath clipPathUnits="userSpaceOnUse" id="clipPath34">
                <path d="M453 403 L472 403 L472 418 L453 418 L453 403 Z"/>
            </clipPath>
            <clipPath clipPathUnits="userSpaceOnUse" id="clipPath35">
                <path d="M341 809 L418 809 L418 831 L341 831 L341 809 Z"/>
            </clipPath>
            <clipPath clipPathUnits="userSpaceOnUse" id="clipPath36">
                <path d="M289 803 L308 803 L308 818 L289 818 L289 803 Z"/>
            </clipPath>
            <clipPath clipPathUnits="userSpaceOnUse" id="clipPath37">
                <path d="M460 232 L498 232 L498 254 L460 254 L460 232 Z"/>
            </clipPath>
            <clipPath clipPathUnits="userSpaceOnUse" id="clipPath38">
                <path d="M289 223 L308 223 L308 238 L289 238 L289 223 Z"/>
            </clipPath>
            <clipPath clipPathUnits="userSpaceOnUse" id="clipPath39">
                <path d="M570 612 L588 612 L588 634 L570 634 L570 612 Z"/>
            </clipPath>
            <clipPath clipPathUnits="userSpaceOnUse" id="clipPath40">
                <path d="M489 603 L508 603 L508 618 L489 618 L489 603 Z"/>
            </clipPath>
            <clipPath clipPathUnits="userSpaceOnUse" id="clipPath41">
                <path d="M507 546 L655 546 L655 568 L507 568 L507 546 Z"/>
            </clipPath>
            <clipPath clipPathUnits="userSpaceOnUse" id="clipPath42">
                <path d="M653 563 L672 563 L672 578 L653 578 L653 563 Z"/>
            </clipPath>
            <clipPath clipPathUnits="userSpaceOnUse" id="clipPath43">
                <path d="M161 106 L222 106 L222 128 L161 128 L161 106 Z"/>
            </clipPath>
            <clipPath clipPathUnits="userSpaceOnUse" id="clipPath44">
                <path d="M253 123 L272 123 L272 138 L253 138 L253 123 Z"/>
            </clipPath>
            <clipPath clipPathUnits="userSpaceOnUse" id="clipPath45">
                <path d="M143 872 L235 872 L235 894 L143 894 L143 872 Z"/>
            </clipPath>
            <clipPath clipPathUnits="userSpaceOnUse" id="clipPath46">
                <path d="M109 863 L128 863 L128 878 L109 878 L109 863 Z"/>
            </clipPath>
            <clipPath clipPathUnits="userSpaceOnUse" id="clipPath47">
                <path d="M592 666 L750 666 L750 688 L592 688 L592 666 Z"/>
            </clipPath>
            <clipPath clipPathUnits="userSpaceOnUse" id="clipPath48">
                <path d="M833 683 L852 683 L852 698 L833 698 L833 683 Z"/>
            </clipPath>
            <clipPath clipPathUnits="userSpaceOnUse" id="clipPath49">
                <path d="M335 299 L468 299 L468 321 L335 321 L335 299 Z"/>
            </clipPath>
            <clipPath clipPathUnits="userSpaceOnUse" id="clipPath50">
                <path d="M269 343 L288 343 L288 358 L269 358 L269 343 Z"/>
            </clipPath>
            <clipPath clipPathUnits="userSpaceOnUse" id="clipPath51">
                <path d="M414 166 L549 166 L549 188 L414 188 L414 166 Z"/>
            </clipPath>
            <clipPath clipPathUnits="userSpaceOnUse" id="clipPath52">
                <path d="M653 183 L672 183 L672 198 L653 198 L653 183 Z"/>
            </clipPath>
            <clipPath clipPathUnits="userSpaceOnUse" id="clipPath53">
                <path d="M656 752 L682 752 L682 774 L656 774 L656 752 Z"/>
            </clipPath>
            <clipPath clipPathUnits="userSpaceOnUse" id="clipPath54">
                <path d="M489 743 L508 743 L508 758 L489 758 L489 743 Z"/>
            </clipPath>
        </defs>
        <g font-size="15px" fill="url(#linearGradient1)" font-family="'Segoe UI'" stroke-linejoin="round" stroke="url(#linearGradient1)" stroke-width="0" stroke-miterlimit="0">
            <rect x="10" width="905" height="1060" y="10" clip-path="url(#clipPath1)" stroke="none"/>
        </g>
        <g font-size="15px" stroke-width="0.1" font-family="'Segoe UI'" stroke-linecap="butt">
            <line y2="25" fill="none" x1="118" clip-path="url(#clipPath2)" x2="118" y1="10"/>
            <line y2="25" fill="none" x1="118" clip-path="url(#clipPath2)" x2="118" y1="25"/>
            <line y2="33" fill="none" x1="118" clip-path="url(#clipPath2)" x2="109" y1="25"/>
            <line y2="33" fill="none" x1="109" clip-path="url(#clipPath2)" x2="109" y1="33"/>
            <line y2="33" fill="none" x1="109" clip-path="url(#clipPath2)" x2="10" y1="33"/>
            <text x="16" xml:space="preserve" y="30" clip-path="url(#clipPath3)" stroke="none">Interaction1  </text>
            <rect x="50" y="49" clip-path="url(#clipPath4)" fill="none" width="99" height="23" stroke-width="1.1"/>
            <line clip-path="url(#clipPath4)" fill="none" x1="100" x2="100" y1="72" y2="1050" stroke-dasharray="5,5" stroke-width="1.1"/>
        </g>
        <g stroke-linecap="butt" font-size="15px" fill="url(#linearGradient2)" font-family="'Segoe UI'" stroke-dasharray="5,5" stroke="url(#linearGradient2)" stroke-width="1.1">
            <rect x="50" y="49" clip-path="url(#clipPath5)" width="100" height="1002" opacity="0" stroke="none"/>
            <text fill="black" x="68" xml:space="preserve" y="69" clip-path="url(#clipPath6)" stroke="none">Employee</text>
            <rect x="90" y="110" clip-path="url(#clipPath7)" fill="url(#linearGradient3)" width="20" height="841" stroke="none"/>
            <rect x="90" y="110" clip-path="url(#clipPath8)" fill="none" width="19" stroke-dasharray="none" rx="0" ry="0" height="840" stroke="black"/>
            <rect x="230" y="49" clip-path="url(#clipPath9)" fill="none" width="99" stroke-dasharray="none" height="23" stroke="black"/>
            <line clip-path="url(#clipPath9)" fill="none" x1="280" x2="280" y1="72" y2="1050" stroke="black"/>
            <rect x="230" y="49" clip-path="url(#clipPath10)" fill="url(#linearGradient4)" width="100" opacity="0" height="1002" stroke="none"/>
            <text fill="black" x="250" xml:space="preserve" y="69" clip-path="url(#clipPath11)" stroke="none">Inventory</text>
            <rect x="270" y="130" clip-path="url(#clipPath12)" fill="url(#linearGradient5)" width="20" height="781" stroke="none"/>
            <rect x="270" y="130" clip-path="url(#clipPath13)" fill="none" width="19" stroke-dasharray="none" rx="0" ry="0" height="780" stroke="black"/>
            <rect x="430" y="49" clip-path="url(#clipPath14)" fill="none" width="99" stroke-dasharray="none" height="23" stroke="black"/>
            <line clip-path="url(#clipPath14)" fill="none" x1="480" x2="480" y1="72" y2="1050" stroke="black"/>
            <rect x="430" y="49" clip-path="url(#clipPath15)" fill="url(#linearGradient6)" width="100" opacity="0" height="1002" stroke="none"/>
            <text fill="black" x="455" xml:space="preserve" y="69" clip-path="url(#clipPath16)" stroke="none">Product</text>
            <rect x="470" y="390" clip-path="url(#clipPath17)" fill="url(#linearGradient7)" width="20" height="441" stroke="none"/>
            <rect x="470" y="390" clip-path="url(#clipPath18)" fill="none" width="19" stroke-dasharray="none" rx="0" ry="0" height="440" stroke="black"/>
            <rect x="630" y="49" clip-path="url(#clipPath19)" fill="none" width="99" stroke-dasharray="none" height="23" stroke="black"/>
            <line clip-path="url(#clipPath19)" fill="none" x1="680" x2="680" y1="72" y2="1050" stroke="black"/>
            <rect x="630" y="49" clip-path="url(#clipPath20)" fill="url(#linearGradient8)" width="100" opacity="0" height="1002" stroke="none"/>
            <text fill="black" x="646" xml:space="preserve" y="69" clip-path="url(#clipPath21)" stroke="none">Salespoint</text>
            <rect x="670" y="170" clip-path="url(#clipPath22)" fill="url(#linearGradient9)" width="20" height="100" stroke="none"/>
            <rect x="670" y="170" clip-path="url(#clipPath23)" fill="none" width="19" stroke-dasharray="none" rx="0" ry="0" height="99" stroke="black"/>
            <rect x="670" y="550" clip-path="url(#clipPath24)" fill="url(#linearGradient10)" width="20" stroke-dasharray="none" height="100" stroke="none"/>
            <rect x="670" y="550" clip-path="url(#clipPath25)" fill="none" width="19" stroke-dasharray="none" rx="0" ry="0" height="99" stroke="black"/>
            <rect x="810" y="49" clip-path="url(#clipPath26)" fill="none" width="99" stroke-dasharray="none" height="23" stroke="black"/>
            <line clip-path="url(#clipPath26)" fill="none" x1="860" x2="860" y1="72" y2="1050" stroke="black"/>
            <rect x="810" y="49" clip-path="url(#clipPath27)" fill="url(#linearGradient11)" width="100" opacity="0" height="1002" stroke="none"/>
            <text fill="black" x="839" xml:space="preserve" y="69" clip-path="url(#clipPath28)" stroke="none">Spring</text>
            <rect x="850" y="670" clip-path="url(#clipPath29)" fill="url(#linearGradient12)" width="20" height="100" stroke="none"/>
            <rect x="850" y="670" clip-path="url(#clipPath30)" fill="none" width="19" stroke-dasharray="none" rx="0" ry="0" height="99" stroke="black"/>
            <rect x="10" y="10" clip-path="url(#clipPath31)" fill="none" width="904" stroke-dasharray="none" rx="0" ry="0" height="1059" stroke="black"/>
        </g>
        <g text-rendering="optimizeLegibility" stroke-width="1.1" font-size="15px" font-family="'Segoe UI'" stroke-linecap="butt">
            <line y2="410" fill="none" x1="290" clip-path="url(#clipPath32)" x2="470" y1="410"/>
            <text x="330" xml:space="preserve" y="404" clip-path="url(#clipPath33)" stroke="none">5: editProduct()</text>
            <polygon points=" 470 410 454 416 454 404" clip-path="url(#clipPath34)" stroke="none"/>
            <polygon fill="none" points=" 470 410 454 416 454 404" clip-path="url(#clipPath34)"/>
            <line clip-path="url(#clipPath32)" fill="none" x1="470" x2="290" y1="810" y2="810" stroke-dasharray="6.6,3.3"/>
            <text x="342" xml:space="preserve" stroke-dasharray="6.6,3.3" y="827" clip-path="url(#clipPath35)" stroke="none">11: Product</text>
            <line y2="810" fill="none" x1="306" clip-path="url(#clipPath36)" x2="290" y1="804"/>
            <line y2="816" fill="none" x1="290" clip-path="url(#clipPath36)" x2="306" y1="810"/>
            <line clip-path="url(#clipPath32)" fill="none" x1="670" x2="290" y1="230" y2="230" stroke-dasharray="6.6,3.3"/>
            <text x="461" xml:space="preserve" stroke-dasharray="6.6,3.3" y="250" clip-path="url(#clipPath37)" stroke="none">3:      </text>
            <line y2="230" fill="none" x1="306" clip-path="url(#clipPath38)" x2="290" y1="224"/>
            <line y2="236" fill="none" x1="290" clip-path="url(#clipPath38)" x2="306" y1="230"/>
            <line clip-path="url(#clipPath32)" fill="none" x1="670" x2="490" y1="610" y2="610" stroke-dasharray="6.6,3.3"/>
            <text x="571" xml:space="preserve" stroke-dasharray="6.6,3.3" y="630" clip-path="url(#clipPath39)" stroke="none">8: </text>
            <line y2="610" fill="none" x1="506" clip-path="url(#clipPath40)" x2="490" y1="604"/>
            <line y2="616" fill="none" x1="490" clip-path="url(#clipPath40)" x2="506" y1="610"/>
            <line y2="570" fill="none" x1="490" clip-path="url(#clipPath32)" x2="670" y1="570"/>
            <text x="508" xml:space="preserve" y="564" clip-path="url(#clipPath41)" stroke="none">7: addOrUpdateItem()</text>
            <polygon points=" 670 570 654 576 654 564" clip-path="url(#clipPath42)" stroke="none"/>
            <polygon fill="none" points=" 670 570 654 576 654 564" clip-path="url(#clipPath42)"/>
            <line y2="130" fill="none" x1="110" clip-path="url(#clipPath32)" x2="270" y1="130"/>
            <text x="162" xml:space="preserve" y="124" clip-path="url(#clipPath43)" stroke="none">1: stock()</text>
            <polygon points=" 270 130 254 136 254 124" clip-path="url(#clipPath44)" stroke="none"/>
            <polygon fill="none" points=" 270 130 254 136 254 124" clip-path="url(#clipPath44)"/>
            <line clip-path="url(#clipPath32)" fill="none" x1="270" x2="110" y1="870" y2="870" stroke-dasharray="6.6,3.3"/>
            <text x="144" xml:space="preserve" stroke-dasharray="6.6,3.3" y="890" clip-path="url(#clipPath45)" stroke="none">12: stock.html</text>
            <line y2="870" fill="none" x1="126" clip-path="url(#clipPath46)" x2="110" y1="864"/>
            <line y2="876" fill="none" x1="110" clip-path="url(#clipPath46)" x2="126" y1="870"/>
            <line y2="690" fill="none" x1="490" clip-path="url(#clipPath32)" x2="850" y1="690"/>
            <text x="593" xml:space="preserve" y="684" clip-path="url(#clipPath47)" stroke="none">9: model.addAttribute()</text>
            <polygon points=" 850 690 834 696 834 684" clip-path="url(#clipPath48)" stroke="none"/>
            <polygon fill="none" points=" 850 690 834 696 834 684" clip-path="url(#clipPath48)"/>
            <line y2="270" fill="none" x1="270" clip-path="url(#clipPath32)" x2="332" y1="270"/>
            <line y2="350" fill="none" x1="332" clip-path="url(#clipPath32)" x2="332" y1="270"/>
            <line y2="350" fill="none" x1="332" clip-path="url(#clipPath32)" x2="270" y1="350"/>
            <text x="336" xml:space="preserve" y="317" clip-path="url(#clipPath49)" stroke="none">4: findbyProductId()</text>
            <polygon points=" 270 350 286 344 286 356" clip-path="url(#clipPath50)" stroke="none"/>
            <polygon fill="none" points=" 270 350 286 344 286 356" clip-path="url(#clipPath50)"/>
            <line y2="190" fill="none" x1="290" clip-path="url(#clipPath32)" x2="670" y1="190"/>
            <text x="415" xml:space="preserve" y="184" clip-path="url(#clipPath51)" stroke="none">2: inventory.findAll()</text>
            <polygon points=" 670 190 654 196 654 184" clip-path="url(#clipPath52)" stroke="none"/>
            <polygon fill="none" points=" 670 190 654 196 654 184" clip-path="url(#clipPath52)"/>
            <line clip-path="url(#clipPath32)" fill="none" x1="850" x2="490" y1="750" y2="750" stroke-dasharray="6.6,3.3"/>
            <text x="657" xml:space="preserve" stroke-dasharray="6.6,3.3" y="770" clip-path="url(#clipPath53)" stroke="none">10: </text>
            <line y2="750" fill="none" x1="506" clip-path="url(#clipPath54)" x2="490" y1="744"/>
            <line y2="756" fill="none" x1="490" clip-path="url(#clipPath54)" x2="506" y1="750"/>
            <line y2="130" fill="none" x1="110" clip-path="url(#clipPath32)" x2="270" y1="130"/>
            <text x="162" xml:space="preserve" y="124" clip-path="url(#clipPath43)" stroke="none">1: stock()</text>
            <polygon points=" 270 130 254 136 254 124" clip-path="url(#clipPath44)" stroke="none"/>
            <polygon fill="none" points=" 270 130 254 136 254 124" clip-path="url(#clipPath44)"/>
            <line y2="190" fill="none" x1="290" clip-path="url(#clipPath32)" x2="670" y1="190"/>
            <text x="415" xml:space="preserve" y="184" clip-path="url(#clipPath51)" stroke="none">2: inventory.findAll()</text>
            <polygon points=" 670 190 654 196 654 184" clip-path="url(#clipPath52)" stroke="none"/>
            <polygon fill="none" points=" 670 190 654 196 654 184" clip-path="url(#clipPath52)"/>
            <line clip-path="url(#clipPath32)" fill="none" x1="670" x2="290" y1="230" y2="230" stroke-dasharray="6.6,3.3"/>
            <text x="461" xml:space="preserve" stroke-dasharray="6.6,3.3" y="250" clip-path="url(#clipPath37)" stroke="none">3:      </text>
            <line y2="230" fill="none" x1="306" clip-path="url(#clipPath38)" x2="290" y1="224"/>
            <line y2="236" fill="none" x1="290" clip-path="url(#clipPath38)" x2="306" y1="230"/>
            <line y2="270" fill="none" x1="270" clip-path="url(#clipPath32)" x2="332" y1="270"/>
            <line y2="350" fill="none" x1="332" clip-path="url(#clipPath32)" x2="332" y1="270"/>
            <line y2="350" fill="none" x1="332" clip-path="url(#clipPath32)" x2="270" y1="350"/>
            <text x="336" xml:space="preserve" y="317" clip-path="url(#clipPath49)" stroke="none">4: findbyProductId()</text>
            <polygon points=" 270 350 286 344 286 356" clip-path="url(#clipPath50)" stroke="none"/>
            <polygon fill="none" points=" 270 350 286 344 286 356" clip-path="url(#clipPath50)"/>
            <line y2="410" fill="none" x1="290" clip-path="url(#clipPath32)" x2="470" y1="410"/>
            <text x="330" xml:space="preserve" y="404" clip-path="url(#clipPath33)" stroke="none">5: editProduct()</text>
            <polygon points=" 470 410 454 416 454 404" clip-path="url(#clipPath34)" stroke="none"/>
            <polygon fill="none" points=" 470 410 454 416 454 404" clip-path="url(#clipPath34)"/>
            <line y2="570" fill="none" x1="490" clip-path="url(#clipPath32)" x2="670" y1="570"/>
            <text x="508" xml:space="preserve" y="564" clip-path="url(#clipPath41)" stroke="none">7: addOrUpdateItem()</text>
            <polygon points=" 670 570 654 576 654 564" clip-path="url(#clipPath42)" stroke="none"/>
            <polygon fill="none" points=" 670 570 654 576 654 564" clip-path="url(#clipPath42)"/>
            <line y2="690" fill="none" x1="490" clip-path="url(#clipPath32)" x2="850" y1="690"/>
            <text x="593" xml:space="preserve" y="684" clip-path="url(#clipPath47)" stroke="none">9: model.addAttribute()</text>
            <polygon points=" 850 690 834 696 834 684" clip-path="url(#clipPath48)" stroke="none"/>
            <polygon fill="none" points=" 850 690 834 696 834 684" clip-path="url(#clipPath48)"/>
            <line clip-path="url(#clipPath32)" fill="none" x1="850" x2="490" y1="750" y2="750" stroke-dasharray="6.6,3.3"/>
            <text x="657" xml:space="preserve" stroke-dasharray="6.6,3.3" y="770" clip-path="url(#clipPath53)" stroke="none">10: </text>
            <line y2="750" fill="none" x1="506" clip-path="url(#clipPath54)" x2="490" y1="744"/>
            <line y2="756" fill="none" x1="490" clip-path="url(#clipPath54)" x2="506" y1="750"/>
            <line clip-path="url(#clipPath32)" fill="none" x1="470" x2="290" y1="810" y2="810" stroke-dasharray="6.6,3.3"/>
            <text x="342" xml:space="preserve" stroke-dasharray="6.6,3.3" y="827" clip-path="url(#clipPath35)" stroke="none">11: Product</text>
            <line y2="810" fill="none" x1="306" clip-path="url(#clipPath36)" x2="290" y1="804"/>
            <line y2="816" fill="none" x1="290" clip-path="url(#clipPath36)" x2="306" y1="810"/>
            <line clip-path="url(#clipPath32)" fill="none" x1="270" x2="110" y1="870" y2="870" stroke-dasharray="6.6,3.3"/>
            <text x="144" xml:space="preserve" stroke-dasharray="6.6,3.3" y="890" clip-path="url(#clipPath45)" stroke="none">12: stock.html</text>
            <line y2="870" fill="none" x1="126" clip-path="url(#clipPath46)" x2="110" y1="864"/>
            <line y2="876" fill="none" x1="110" clip-path="url(#clipPath46)" x2="126" y1="870"/>
            <line clip-path="url(#clipPath32)" fill="none" x1="670" x2="490" y1="610" y2="610" stroke-dasharray="6.6,3.3"/>
            <text x="571" xml:space="preserve" stroke-dasharray="6.6,3.3" y="630" clip-path="url(#clipPath39)" stroke="none">8: </text>
            <line y2="610" fill="none" x1="506" clip-path="url(#clipPath40)" x2="490" y1="604"/>
            <line y2="616" fill="none" x1="490" clip-path="url(#clipPath40)" x2="506" y1="610"/>
        </g>
    </g>
</svg>
